<svg width="129" height="158" fill="none" xmlns="http://www.w3.org/2000/svg"><path opacity=".9" clip-rule="evenodd" d="M42.558 121.679l20.88-42.516 42.204 17.276.95-1.978c10.901-22.68 2.266-45.7-20.916-57.257-.14-2.27-2.168-4.083-4.661-4.083a4.89 4.89 0 00-2.85.915C72.32 32.028 66.429 31 60.607 31 42.07 31 26.122 41.16 17.94 58.18l-.947 1.973 42.165 17.256-21.743 44.27H8.256V126h112.488v-4.321H42.558zm37.498-82.27c.01.004.017.009.024.013 10.17 4.213 11.19 23.003 2.772 42.96L45.136 66.946c7.436-13.979 17.126-24.331 25.863-27.42 3.327-1.178 6.379-1.215 9.057-.116zm23.157 51.307l-16.087-6.584c6.3-14.836 7.563-28.974 4.052-38.391 14.406 10.868 19.283 27.913 12.035 44.975zM60.608 35.32c2.507 0 5.033.216 7.567.633-9.496 3.906-19.662 14.81-27.328 29.24l-17.628-7.216C30.871 43.743 44.695 35.32 60.607 35.32z" stroke="#fff" stroke-width="2"/></svg>