<svg width="129" height="158" fill="none" xmlns="http://www.w3.org/2000/svg"><g opacity=".7" stroke="#fff" stroke-width="2"><path opacity=".8" d="M36.85 79.384c-4.391 4.935-9.05 16.952-9.05 29.399 0 1.502.985 2.682 2.24 2.682 1.254 0 2.24-1.18 2.24-2.682 0-10.408 3.942-21.352 7.616-25.43.896-.965.896-2.682.09-3.755-.807-1.18-2.24-1.18-3.137-.214z"/><path d="M101.951 116.85l.04.959h7.769c.541 0 1.24.556 1.24 1.682s-.699 1.682-1.24 1.682H2.24c-.54 0-1.24-.556-1.24-1.682s.7-1.682 1.24-1.682h7.773l.036-.963c.973-25.835 16.785-46.933 37.215-51.638l.776-.178v-7.234c0-5.525 3.745-9.73 7.96-9.73s7.96 4.205 7.96 9.73v7.234l.776.178c20.427 4.705 36.154 25.8 37.215 51.642zM60.332 64.365l1.148.172v-6.741c0-3.38-2.258-6.364-5.48-6.364-3.222 0-5.48 2.984-5.48 6.364v6.657l1.075-.08c1.435-.108 2.924-.212 4.405-.212 1.539 0 2.985.002 4.332.204zm38.138 53.444h1.045l-.046-1.044C98.29 89.577 79.45 67.525 56 67.525c-23.45 0-42.289 22.052-43.47 49.24l-.045 1.044H98.47zM87.36 64.161h22.4c.541 0 1.24.556 1.24 1.683 0 1.126-.699 1.682-1.24 1.682h-22.4c-.54 0-1.24-.556-1.24-1.682 0-1.127.7-1.683 1.24-1.683zM99.008 74.89h10.752c.541 0 1.24.557 1.24 1.683s-.699 1.682-1.24 1.682H99.008c-.54 0-1.24-.556-1.24-1.682s.7-1.682 1.24-1.682zm6.272 10.73h4.48c.541 0 1.24.556 1.24 1.682 0 1.127-.699 1.683-1.24 1.683h-4.48c-.541 0-1.24-.556-1.24-1.683 0-1.126.699-1.682 1.24-1.682z"/></g></svg>