<svg width="139" height="162" fill="none" xmlns="http://www.w3.org/2000/svg"><g opacity=".9" stroke="#fff" stroke-width="2"><path d="M85.261 96.185S74.502 93.89 53.864 33.728M22.467 96.185s10.759-2.294 31.397-62.457M22.467 96.185v20.818m62.794-20.818v20.818m20.932-20.818l20.932 20.818V96.185m0 0c11.55-.48 10.465 0 10.465 0v20.818h-10.465"/><path d="M85.261 117.003c1.726.371 20.932 0 20.932 0V96.185L78.42 46.462 53.864 2.5 1.535 96.185v20.818h20.932"/><path clip-rule="evenodd" d="M53.924 139.467l1.418 9.072 1.837 11.756-2.939-.024a2.556 2.556 0 01-.817-.135 2.643 2.643 0 01-1.801-2.788l.298-2.752c.146-1.348.255-2.698.329-4.051l.315-5.812.283-5.212a.508.508 0 01.047-.191.478.478 0 01.048-.086.51.51 0 01.227-.187.769.769 0 01.094-.032c.016-.003.032-.007.049-.009a.818.818 0 01.05-.005h.049a.812.812 0 01.098.013.768.768 0 01.048.013c.016.006.032.011.047.018a.686.686 0 01.087.047l.04.03a.38.38 0 01.037.033.375.375 0 01.034.036l.03.039a.48.48 0 01.082.179.584.584 0 01.01.048z"/><path d="M53.864 137.734s17.844 1.754 21.347-10.409-8.713-24.218-8.713-24.218l-12.634-17.42m-.009 52.047s-17.497 1.754-20.931-10.409c-3.435-12.163 8.543-24.218 8.543-24.218l12.388-17.42"/><path clip-rule="evenodd" d="M78.48 128.547l11.995-1.119 15.592-1.456-.195 3.866a3.6 3.6 0 01-.113.714 3.374 3.374 0 01-.261.675 3.372 3.372 0 01-.643.873 3.453 3.453 0 01-.883.63 3.402 3.402 0 01-1.037.325 3.383 3.383 0 01-1.088-.013l-4.21-.72a76.254 76.254 0 00-4.065-.584l-8.267-.965-6.842-.799a.718.718 0 01-.362-.148.9.9 0 01-.096-.09.784.784 0 01-.135-.225.722.722 0 01.066-.631.589.589 0 01.08-.104.596.596 0 01.153-.125.65.65 0 01.18-.079l.065-.016a.724.724 0 01.066-.009zm-48.572 0l-11.996-1.119-15.592-1.456h0l.196 3.866a3.388 3.388 0 00.374 1.389 3.474 3.474 0 00.642.873 3.551 3.551 0 00.567.452 3.464 3.464 0 002.441.49l4.21-.72a76.265 76.265 0 014.066-.584l8.266-.965 6.843-.799a.71.71 0 00.637-.721.708.708 0 00-.289-.565.681.681 0 00-.236-.116.729.729 0 00-.13-.025zm3.598 7.17l-8.239 7.082-10.77 9.257h0l2.641 2.493a3.113 3.113 0 00.824.556 3.107 3.107 0 001.624.262 3.303 3.303 0 00.649-.145 3.106 3.106 0 00.877-.468 2.907 2.907 0 00.48-.458 3.27 3.27 0 00.199-.265l2.048-3.053a76.382 76.382 0 012.398-3.374l4.465-5.933 3.791-5.038a1.028 1.028 0 00.065-.105.66.66 0 00.068-.36.75.75 0 00-.042-.18.669.669 0 00-.219-.294.91.91 0 00-.104-.066 1.031 1.031 0 00-.057-.026 1.118 1.118 0 00-.118-.035.641.641 0 00-.124-.014c-.02 0-.041 0-.062.002a.636.636 0 00-.293.091.557.557 0 00-.101.071zm36.324-1.145l8.238 7.082 10.77 9.257-2.641 2.493a3.095 3.095 0 01-.824.556 3.095 3.095 0 01-1.952.207 2.958 2.958 0 01-.63-.214 3.188 3.188 0 01-.567-.344 2.907 2.907 0 01-.48-.458 3.05 3.05 0 01-.2-.265l-2.048-3.053a76.382 76.382 0 00-2.398-3.374l-4.465-5.933-3.791-5.038a.962.962 0 01-.065-.105.63.63 0 01-.059-.175.726.726 0 010-.246.683.683 0 01.252-.413.91.91 0 01.104-.066l.057-.026a1.118 1.118 0 01.118-.035.636.636 0 01.308.008.612.612 0 01.171.071.569.569 0 01.101.071z"/><path d="M54.084 132.547s7.979 1.088 9.545-6.461c1.566-7.549-3.896-15.03-3.896-15.03l-5.648-10.812m-.005 32.303s-7.823 1.088-9.358-6.461c-1.536-7.549 3.82-15.03 3.82-15.03l5.538-10.812"/></g></svg>