<svg width="489" height="822" xmlns="http://www.w3.org/2000/svg"><g id="map" transform="translate(1 1)"><path d="M6.5 11.532c3.59 0 6.5-2.582 6.5-5.766C13 2.581 10.09 0 6.5 0S0 2.581 0 5.766c0 3.184 2.91 5.766 6.5 5.766z" transform="translate(453.339 696.186)" id="Shape" fill="#33B6FF" fill-rule="evenodd" stroke="none"/><path d="M6.5 11.532c3.59 0 6.5-2.581 6.5-5.766C13 2.582 10.09 0 6.5 0S0 2.582 0 5.766c0 3.185 2.91 5.766 6.5 5.766z" transform="translate(202.839 473.972)" id="Shape" fill="#33B6FF" fill-rule="evenodd" stroke="none"/><path d="M6.5 11.532c3.59 0 6.5-2.581 6.5-5.766C13 2.582 10.09 0 6.5 0S0 2.582 0 5.766c0 3.185 2.91 5.766 6.5 5.766z" transform="translate(292.339 647.396)" id="Shape" fill="#33B6FF" fill-rule="evenodd" stroke="none"/><path d="M453.84 701.508c-21.855-10.588-27.745-4.412-45.237 7.67-5.184 3.582-12.65 2.997-16.383-1.992-8.029-10.73-6.81-20.46-19.88-19.871-13.5.607-18.116 4.223-19.6 5.422-13.034 10.527-41.624 10.722-55.823 2.084-10.103-6.146-1.171-36.811 4.112-46.128-32.19-112.182-109.238-32.205-89.69-103.311 1.496-5.443.929-54.78 0-60.321" id="Shape" fill="none" fill-rule="evenodd" stroke="#FFF" stroke-opacity=".5" stroke-width="2"/><g id="Mask-group"><g id="Group"><path d="M467.845 819.455c2.671-6.83 21.641-27.21 17.599-37.672-4.86-12.505-23.898-7.238-30.174-15.09-7.339-9.26.855-49.236 3.331-60.778 4.75-21.866 18.114-40.169 20.675-61.898 4.305-36.484-9.974-32.718-39.234-53.537-3.13-2.229-5.925-4.485-8.418-6.766-36.779-33.653-7.862-72.812-22.1-113.914-12.358-35.772-55.235-51.972-73.277-87.391-13.945-27.275-30.618-33.438-57.23-52.374 1.578 12.396 17.099 48.286-6.844 46.507-23.759-1.737-17.127-32.904-22.643-45.424-4.635-10.423-33.148-30.08-11.664-41.273 7.145-3.695 29.247 7.908 37.989 10.834-7.286-16.086-4.851-33.399-15.573-48.538-12.797-18.054-24.423-10.094-40.213-19.356-16.285-9.547-15.585-21.715-9.976-38.017 5.851-17 13.456-14.897.504-34.15-9.374-13.908-24.798-31.329-37.689-41.558-7.492-5.94-15.187-6.937-22.821-14.653-6.342-6.433-4.796-15.452-12.209-21.136-12.675-9.77-32.761-8.688-43.206-21.85-11.636-14.661-.709-26.935-31.269-23.633C59.376 7.278 2.073 30.63 0 0" id="Shape" fill="none" fill-rule="evenodd" stroke="#FFF" stroke-opacity=".502" stroke-width="2" stroke-linecap="round" stroke-linejoin="round"/></g></g></g></svg>